# xmcd
#
# Track frame offsets:
# 150
# 17473
# 34713
# 43272
# 58868
# 72894
# 93651
# 112183
# 124927
# 143666
# 153160
# 173913
# 184060
# 196942
# 207068
#
# Disc length: 3031 seconds
#
#
# Revision: 2
# Processed by: cddbd v1.5PL3 Copyright (c) Steve Scherf et al.
# Submitted via: FreeRIP 2.70 
#
DISCID=d20bd50f
DTITLE=Dave MacKenzie - Solo
DYEAR=2003
DGENRE=Blues
TTITLE0=That Rainy Days Comin'
TTITLE1=Hoodoo Girl
TTITLE2=Two Girlfriends
TTITLE3=Little Laura
TTITLE4=Big Ol Girls (s)
TTITLE5=Two Drags
TTITLE6=Rats in My Bedroom (s)
TTITLE7=Baby, Why'd You Change (s)
TTITLE8=Back in the Day
TTITLE9=If Jesus comes Back (s)
TTITLE10=Too Young to Know
TTITLE11=She Ain't No Southern Girl
TTITLE12=Jumpin' on Jefferson
TTITLE13=Stumblin' on Home
TTITLE14=A Better Way (s)
EXTD=Bluesfestradio.com
EXTT0=
EXTT1=
EXTT2=
EXTT3=
EXTT4=
EXTT5=
EXTT6=
EXTT7=
EXTT8=
EXTT9=
EXTT10=
EXTT11=
EXTT12=
EXTT13=
EXTT14=
PLAYORDER=
